<svg width="31" height="32" viewBox="0 0 31 32" fill="none" xmlns="http://www.w3.org/2000/svg">
<path d="M29.7163 5.4385C29.7163 3.90894 28.6706 2.58699 27.1549 2.38171C25.7143 2.18661 23.7327 2.00257 21.383 2.00257C16.383 2.00257 13.3303 1.72196 8.04965 7.00258C5.61407 9.43817 3.74796 12.1585 2.61778 13.9985C1.79407 15.3395 1.79407 16.999 2.61778 18.34C3.74796 20.18 5.61407 22.9003 8.04965 25.3359C13.3303 30.6166 16.383 30.3359 21.383 30.3359C23.7327 30.3359 25.7143 30.1519 27.1549 29.9568C28.6706 29.7515 29.7163 28.4295 29.7163 26.9L29.7163 5.4385Z" stroke="#F6E8EA" stroke-width="2.5" stroke-linecap="round" stroke-linejoin="round"/>
</svg>
