<svg width="34" height="34" viewBox="0 0 34 34" fill="none" xmlns="http://www.w3.org/2000/svg">
<path d="M6.64284 5.33333H29.0419C31.3171 5.33333 32.9237 7.56232 32.2042 9.72076L29.4264 18.0541C28.9727 19.4152 27.6989 20.3333 26.2641 20.3333H8.7857M6.64284 5.33333L6.57551 4.86193C6.34092 3.21977 4.93452 2 3.27568 2H2M6.64284 5.33333L8.7857 20.3333M8.7857 20.3333L9.09115 22.4714C9.32575 24.1136 10.7321 25.3333 12.391 25.3333H27M27 25.3333C25.159 25.3333 23.6667 26.8257 23.6667 28.6667C23.6667 30.5076 25.159 32 27 32C28.8409 32 30.3333 30.5076 30.3333 28.6667C30.3333 26.8257 28.8409 25.3333 27 25.3333ZM17 28.6667C17 30.5076 15.5076 32 13.6667 32C11.8257 32 10.3333 30.5076 10.3333 28.6667C10.3333 26.8257 11.8257 25.3333 13.6667 25.3333C15.5076 25.3333 17 26.8257 17 28.6667Z" stroke="#F6E8EA" stroke-width="2.5" stroke-linecap="round" stroke-linejoin="round"/>
</svg>
