<svg width="175" height="66" viewBox="0 0 175 66" fill="none" xmlns="http://www.w3.org/2000/svg">
<g filter="url(#filter0_i_129_1339)">
<path fill-rule="evenodd" clip-rule="evenodd" d="M30 6.98138C30 3.12568 26.891 0 23.0556 0H21.9444C18.1092 0 15 3.12568 15 6.98138V8.0984C15 11.9541 11.8909 15.0798 8.05562 15.0798H6.94444C3.10914 15.0798 0 18.2055 0 22.0612V53.3378C0 57.1934 3.10914 60.3191 6.94444 60.3191H8.33333C12.1686 60.3191 15.2778 57.1934 15.2778 53.3378V33.5105C15.2778 29.6548 18.3869 26.5293 22.2222 26.5293H23.6111C27.4464 26.5293 30.5556 29.6548 30.5556 33.5106V53.3378C30.5556 57.1934 33.6647 60.3191 37.5 60.3191H38.0556C41.8908 60.3191 45 57.1934 45 53.3378V22.0612C45 18.2055 41.8908 15.0798 38.0556 15.0798H36.9444C33.1092 15.0798 30 11.9541 30 8.0984V6.98138Z" fill="#49A078"/>
</g>
<path d="M60.5778 60.0399L59.6111 55.2479H54.1111L53.1778 60.0399H48.9111C49.8889 55.9516 50.8778 52.2319 51.8778 48.8808C52.8778 45.5074 53.8445 42.3127 54.7778 39.2968H59.2445C60.2222 42.3351 61.1889 45.5633 62.1445 48.9814C63.1222 52.3771 64.0667 56.0633 64.9778 60.0399H60.5778ZM56.9111 43.3181C56.6889 44.1 56.4778 44.8484 56.2778 45.5633C56.1 46.2558 55.9222 46.9484 55.7445 47.6409C55.5889 48.3111 55.4334 48.9925 55.2778 49.6851C55.1445 50.3776 55.0111 51.0925 54.8778 51.8298H58.9111C58.7778 51.0925 58.6445 50.3776 58.5111 49.6851C58.3778 48.9925 58.2222 48.3111 58.0445 47.6409C57.8889 46.9484 57.7111 46.2558 57.5111 45.5633C57.3334 44.8484 57.1334 44.1 56.9111 43.3181ZM69.5445 47.6074H72.1778C73.5111 47.6074 74.5111 47.3728 75.1778 46.9037C75.8445 46.4122 76.1778 45.742 76.1778 44.8931C76.1778 44.0441 75.9 43.4298 75.3445 43.05C74.7889 42.6478 73.9445 42.4468 72.8111 42.4468C72.3889 42.4468 71.9556 42.4915 71.5111 42.5808C71.0889 42.6702 70.6778 42.7819 70.2778 42.9159C69.8778 43.05 69.5 43.2064 69.1445 43.3851C68.7889 43.5415 68.4889 43.6979 68.2445 43.8542L66.7778 40.5367C67.6445 40.0005 68.6334 39.5872 69.7445 39.2968C70.8556 38.984 71.9778 38.8276 73.1111 38.8276C74.3778 38.8276 75.4667 38.9952 76.3778 39.3303C77.2889 39.6431 78.0333 40.0675 78.6111 40.6037C79.2111 41.1399 79.6445 41.7542 79.9111 42.4468C80.2 43.117 80.3445 43.7984 80.3445 44.4909C80.3445 45.4292 80.1 46.3117 79.6111 47.1383C79.1222 47.9425 78.4445 48.5569 77.5778 48.9814C78.7111 49.3611 79.6 50.0202 80.2445 50.9585C80.9111 51.8968 81.2445 52.9468 81.2445 54.1085C81.2445 54.8681 81.1222 55.6276 80.8778 56.3872C80.6334 57.1468 80.1889 57.8282 79.5445 58.4314C78.9 59.0345 78.0222 59.526 76.9111 59.9058C75.8222 60.2856 74.4222 60.4755 72.7111 60.4755C71.6445 60.4755 70.5111 60.3303 69.3111 60.0399C68.1334 59.7718 67.0445 59.3808 66.0445 58.867L67.4111 55.5494C67.6778 55.6611 68 55.7952 68.3778 55.9516C68.7556 56.108 69.1667 56.2532 69.6111 56.3872C70.0778 56.5213 70.5667 56.6441 71.0778 56.7558C71.6111 56.8452 72.1667 56.8899 72.7445 56.8899C73.5889 56.8899 74.2889 56.8117 74.8445 56.6553C75.4 56.4766 75.8445 56.2532 76.1778 55.9851C76.5111 55.717 76.7445 55.4042 76.8778 55.0468C77.0111 54.6893 77.0778 54.3207 77.0778 53.9409C77.0778 53.0026 76.7556 52.2766 76.1111 51.7627C75.4889 51.2489 74.3889 50.992 72.8111 50.992H69.5445V47.6074ZM82.2111 56.9234C82.7889 56.7223 83.2667 56.4877 83.6445 56.2197C84.0445 55.9292 84.3667 55.6053 84.6111 55.2479C84.8556 54.8681 85.0556 54.4548 85.2111 54.008C85.3889 53.5388 85.5445 53.025 85.6778 52.4665C86.0334 50.992 86.2667 49.1489 86.3778 46.9372C86.4889 44.7032 86.5445 42.1564 86.5445 39.2968H97.4111V60.0399H93.3111V42.7149H90.3111C90.2667 44.0106 90.2111 45.3399 90.1445 46.7026C90.0778 48.0654 89.9556 49.3835 89.7778 50.6569C89.6222 51.9303 89.3889 53.1478 89.0778 54.3096C88.7667 55.4489 88.3334 56.4654 87.7778 57.359C87.2445 58.2303 86.5667 58.9452 85.7445 59.5037C84.9222 60.0622 83.9111 60.3861 82.7111 60.4755L82.2111 56.9234Z" fill="#F6E8EA"/>
<path d="M136.967 60.0399L136 55.2479H130.5L129.567 60.0399H125.3C126.278 55.9516 127.267 52.2319 128.267 48.8808C129.267 45.5074 130.233 42.3128 131.167 39.2968H135.633C136.611 42.3351 137.578 45.5633 138.533 48.9814C139.511 52.3771 140.456 56.0633 141.367 60.0399H136.967ZM133.3 43.3181C133.078 44.1 132.867 44.8484 132.667 45.5633C132.489 46.2558 132.311 46.9484 132.133 47.641C131.978 48.3112 131.822 48.9925 131.667 49.6851C131.533 50.3777 131.4 51.0925 131.267 51.8298H135.3C135.167 51.0925 135.033 50.3777 134.9 49.6851C134.767 48.9925 134.611 48.3112 134.433 47.641C134.278 46.9484 134.1 46.2558 133.9 45.5633C133.722 44.8484 133.522 44.1 133.3 43.3181ZM143.2 60.0399V39.2968H146.9V52.0644C147.256 51.2824 147.678 50.3665 148.167 49.3165C148.678 48.2441 149.222 47.1271 149.8 45.9654C150.4 44.8037 151.011 43.6532 151.633 42.5138C152.256 41.3521 152.878 40.2798 153.5 39.2968H156.8V60.0399H153.1V46.267C151.833 48.5681 150.656 50.8356 149.567 53.0697C148.5 55.3037 147.478 57.6271 146.5 60.0399H143.2ZM150 37.5207C149.378 37.5207 148.767 37.4314 148.167 37.2527C147.567 37.0516 147.033 36.7723 146.567 36.4149C146.1 36.0351 145.711 35.5771 145.4 35.041C145.089 34.5048 144.911 33.9016 144.867 33.2314L147.933 32.4271C148.067 33.209 148.322 33.7564 148.7 34.0691C149.078 34.3819 149.511 34.5383 150 34.5383C150.511 34.5383 150.956 34.3931 151.333 34.1027C151.711 33.7899 151.967 33.2425 152.1 32.4606L155.167 33.2649C155.1 33.9351 154.911 34.5383 154.6 35.0745C154.289 35.6106 153.9 36.0574 153.433 36.4149C152.967 36.7723 152.433 37.0516 151.833 37.2527C151.233 37.4314 150.622 37.5207 150 37.5207ZM163.7 39.2968C163.856 39.766 164.044 40.3691 164.267 41.1064C164.511 41.8436 164.767 42.6367 165.033 43.4856C165.3 44.3346 165.567 45.1947 165.833 46.066C166.1 46.9372 166.356 47.7415 166.6 48.4787C166.867 47.6521 167.144 46.8032 167.433 45.9319C167.722 45.0383 168 44.1894 168.267 43.3851C168.533 42.5585 168.778 41.7878 169 41.0729C169.222 40.358 169.422 39.766 169.6 39.2968H173C173.156 41.1064 173.3 42.8713 173.433 44.5915C173.589 46.3117 173.711 48.0207 173.8 49.7186C173.911 51.3941 174 53.092 174.067 54.8122C174.133 56.5101 174.189 58.2527 174.233 60.0399H170.467L170.667 43.9213L168.133 52.7011H165.133L162.7 43.9213L162.867 60.0399H159.1C159.167 58.342 159.233 56.5771 159.3 54.7452C159.389 52.9133 159.478 51.0926 159.567 49.283C159.656 47.4734 159.756 45.7197 159.867 44.0218C160 42.3239 160.144 40.7489 160.3 39.2968H163.7Z" fill="#F6E8EA"/>
<g filter="url(#filter1_i_129_1339)">
<path fill-rule="evenodd" clip-rule="evenodd" d="M90.2778 22.3404C90.2778 18.4847 93.3869 15.359 97.2222 15.359H127.778C131.613 15.359 134.722 18.4847 134.722 22.3404V23.7367C134.722 27.5923 131.613 30.7181 127.778 30.7181H126.389C122.554 30.7181 119.444 33.8438 119.444 37.6994V53.0585C119.444 56.9142 116.335 60.0399 112.5 60.0399C108.665 60.0399 105.556 56.9142 105.556 53.0585V37.6994C105.556 33.8438 102.446 30.7181 98.6111 30.7181H97.2222C93.3869 30.7181 90.2778 27.5923 90.2778 23.7367V22.3404Z" fill="#49A078"/>
</g>
<defs>
<filter id="filter0_i_129_1339" x="0" y="0" width="45" height="64.3191" filterUnits="userSpaceOnUse" color-interpolation-filters="sRGB">
<feFlood flood-opacity="0" result="BackgroundImageFix"/>
<feBlend mode="normal" in="SourceGraphic" in2="BackgroundImageFix" result="shape"/>
<feColorMatrix in="SourceAlpha" type="matrix" values="0 0 0 0 0 0 0 0 0 0 0 0 0 0 0 0 0 0 127 0" result="hardAlpha"/>
<feOffset dy="4"/>
<feGaussianBlur stdDeviation="2"/>
<feComposite in2="hardAlpha" operator="arithmetic" k2="-1" k3="1"/>
<feColorMatrix type="matrix" values="0 0 0 0 0 0 0 0 0 0 0 0 0 0 0 0 0 0 0.25 0"/>
<feBlend mode="normal" in2="shape" result="effect1_innerShadow_129_1339"/>
</filter>
<filter id="filter1_i_129_1339" x="90.2778" y="15.359" width="44.4445" height="48.6809" filterUnits="userSpaceOnUse" color-interpolation-filters="sRGB">
<feFlood flood-opacity="0" result="BackgroundImageFix"/>
<feBlend mode="normal" in="SourceGraphic" in2="BackgroundImageFix" result="shape"/>
<feColorMatrix in="SourceAlpha" type="matrix" values="0 0 0 0 0 0 0 0 0 0 0 0 0 0 0 0 0 0 127 0" result="hardAlpha"/>
<feOffset dy="4"/>
<feGaussianBlur stdDeviation="2"/>
<feComposite in2="hardAlpha" operator="arithmetic" k2="-1" k3="1"/>
<feColorMatrix type="matrix" values="0 0 0 0 0 0 0 0 0 0 0 0 0 0 0 0 0 0 0.25 0"/>
<feBlend mode="normal" in2="shape" result="effect1_innerShadow_129_1339"/>
</filter>
</defs>
</svg>
