<svg width="70" height="70" viewBox="0 0 70 70" fill="none" xmlns="http://www.w3.org/2000/svg">
<g filter="url(#filter0_i_129_1404)">
<rect width="70" height="70" rx="35" fill="#216869"/>
<path d="M11.3652 30.6699H58.6332V33.5565C58.6332 46.6092 48.0519 57.1905 34.9992 57.1905C21.9465 57.1905 11.3652 46.6092 11.3652 33.5565V30.6699Z" fill="#44ADAE"/>
<path d="M37.5918 17.9439C35.9664 17.1002 34.032 17.1002 32.4066 17.9439L12.9887 28.0234C11.9912 28.5412 11.3652 29.5715 11.3652 30.6954C11.3652 31.8866 12.0676 32.9658 13.1569 33.4481L32.8876 42.1839C34.2324 42.7793 35.766 42.7793 37.1108 42.1839L56.8415 33.4481C57.9308 32.9658 58.6332 31.8866 58.6332 30.6954C58.6332 29.5715 58.0072 28.5412 57.0097 28.0234L37.5918 17.9439Z" fill="#275556"/>
<path opacity="0.8" d="M21.4688 12.6289C19.8746 12.6289 18.5822 13.9213 18.5822 15.5155V35.8498L32.8882 42.1837C34.2329 42.7791 35.7665 42.7791 37.1113 42.1837L51.4173 35.8498V15.5155C51.4173 13.9213 50.1249 12.6289 48.5307 12.6289H21.4688Z" fill="white"/>
<rect x="22.9119" y="17.5" width="11.5464" height="3.24742" rx="1.62371" fill="#9D9D9D"/>
<path opacity="0.9" d="M22.9119 25.2579C22.9119 24.3611 23.6389 23.6342 24.5356 23.6342H45.4635C46.3602 23.6342 47.0872 24.3611 47.0872 25.2579C47.0872 26.1546 46.3602 26.8816 45.4635 26.8816H24.5356C23.6389 26.8816 22.9119 26.1546 22.9119 25.2579Z" fill="#9D9D9D"/>
<path opacity="0.8" d="M22.9119 31.3919C22.9119 30.4951 23.6389 29.7682 24.5356 29.7682H40.5923C41.4891 29.7682 42.2161 30.4951 42.2161 31.3919C42.2161 32.2887 41.4891 33.0156 40.5923 33.0156H24.5356C23.6389 33.0156 22.9119 32.2887 22.9119 31.3919Z" fill="#9D9D9D"/>
<path opacity="0.6" d="M26.0349 39.1493H36.2624C36.661 39.1493 36.9841 38.8262 36.9841 38.4276V36.6235C36.9841 36.2249 36.661 35.9019 36.2624 35.9019H23.6336C23.235 35.9019 22.9119 36.2249 22.9119 36.6235V37.7666L26.0349 39.1493Z" fill="#9D9D9D"/>
</g>
<defs>
<filter id="filter0_i_129_1404" x="0" y="0" width="70" height="74" filterUnits="userSpaceOnUse" color-interpolation-filters="sRGB">
<feFlood flood-opacity="0" result="BackgroundImageFix"/>
<feBlend mode="normal" in="SourceGraphic" in2="BackgroundImageFix" result="shape"/>
<feColorMatrix in="SourceAlpha" type="matrix" values="0 0 0 0 0 0 0 0 0 0 0 0 0 0 0 0 0 0 127 0" result="hardAlpha"/>
<feOffset dy="4"/>
<feGaussianBlur stdDeviation="2"/>
<feComposite in2="hardAlpha" operator="arithmetic" k2="-1" k3="1"/>
<feColorMatrix type="matrix" values="0 0 0 0 0 0 0 0 0 0 0 0 0 0 0 0 0 0 0.25 0"/>
<feBlend mode="normal" in2="shape" result="effect1_innerShadow_129_1404"/>
</filter>
</defs>
</svg>
