<svg width="70" height="70" viewBox="0 0 70 70" fill="none" xmlns="http://www.w3.org/2000/svg">
<g filter="url(#filter0_i_129_1399)">
<rect width="70" height="70" rx="35" fill="#216869"/>
<path d="M50.75 44.9698C50.75 45.5368 50.6238 46.1195 50.3557 46.6865C50.0875 47.2535 49.7404 47.789 49.283 48.293C48.5102 49.1435 47.6585 49.7578 46.6961 50.1515C45.7497 50.5453 44.7244 50.75 43.6203 50.75C42.0114 50.75 40.292 50.372 38.4781 49.6003C36.6641 48.8285 34.8502 47.789 33.0519 46.4818C31.238 45.1588 29.5186 43.694 27.8782 42.0718C26.2535 40.4338 24.7866 38.717 23.4773 36.9215C22.1839 35.126 21.1428 33.3305 20.3857 31.5508C19.6286 29.7553 19.25 28.0385 19.25 26.4005C19.25 25.3295 19.4393 24.3057 19.8179 23.3607C20.1964 22.4 20.7958 21.518 21.6318 20.7305C22.6413 19.7382 23.7455 19.25 24.9127 19.25C25.3544 19.25 25.7961 19.3445 26.1904 19.5335C26.6005 19.7225 26.9633 20.006 27.2473 20.4155L30.9067 25.5658C31.1907 25.9595 31.3957 26.3217 31.5376 26.6682C31.6797 26.999 31.7585 27.3298 31.7585 27.629C31.7585 28.007 31.648 28.385 31.4273 28.7473C31.2222 29.1095 30.9225 29.4875 30.5439 29.8655L29.3451 31.1098C29.1716 31.283 29.0928 31.4878 29.0928 31.7398C29.0928 31.8658 29.1085 31.976 29.1401 32.102C29.1874 32.228 29.2347 32.3225 29.2663 32.417C29.5502 32.9368 30.0392 33.614 30.7332 34.433C31.443 35.252 32.2002 36.0867 33.0204 36.9215C33.8721 37.7562 34.6924 38.528 35.5285 39.2367C36.3487 39.9297 37.0268 40.4022 37.5632 40.6857C37.6421 40.7172 37.7366 40.7645 37.8471 40.8118C37.9732 40.859 38.0996 40.8748 38.2415 40.8748C38.5096 40.8748 38.7147 40.7803 38.8881 40.607L40.0871 39.4258C40.4814 39.032 40.8599 38.7327 41.2227 38.5437C41.5854 38.3232 41.9484 38.213 42.3427 38.213C42.6424 38.213 42.9578 38.276 43.3048 38.4178C43.6518 38.5595 44.0146 38.7642 44.4091 39.032L49.63 42.7333C50.0402 43.0168 50.3241 43.3475 50.4977 43.7413C50.6553 44.135 50.75 44.5288 50.75 44.9698Z" stroke="white" stroke-width="3" stroke-miterlimit="10"/>
</g>
<defs>
<filter id="filter0_i_129_1399" x="0" y="0" width="70" height="74" filterUnits="userSpaceOnUse" color-interpolation-filters="sRGB">
<feFlood flood-opacity="0" result="BackgroundImageFix"/>
<feBlend mode="normal" in="SourceGraphic" in2="BackgroundImageFix" result="shape"/>
<feColorMatrix in="SourceAlpha" type="matrix" values="0 0 0 0 0 0 0 0 0 0 0 0 0 0 0 0 0 0 127 0" result="hardAlpha"/>
<feOffset dy="4"/>
<feGaussianBlur stdDeviation="2"/>
<feComposite in2="hardAlpha" operator="arithmetic" k2="-1" k3="1"/>
<feColorMatrix type="matrix" values="0 0 0 0 0 0 0 0 0 0 0 0 0 0 0 0 0 0 0.25 0"/>
<feBlend mode="normal" in2="shape" result="effect1_innerShadow_129_1399"/>
</filter>
</defs>
</svg>
